<?xml version="1.0" encoding="UTF-8" standalone="no"?>
<!-- Generator: Adobe Illustrator 21.0.1, SVG Export Plug-In . SVG Version: 6.00 Build 0)  -->

<svg
   xmlns:dc="http://purl.org/dc/elements/1.1/"
   xmlns:cc="http://creativecommons.org/ns#"
   xmlns:rdf="http://www.w3.org/1999/02/22-rdf-syntax-ns#"
   xmlns:svg="http://www.w3.org/2000/svg"
   xmlns="http://www.w3.org/2000/svg"
   xmlns:sodipodi="http://sodipodi.sourceforge.net/DTD/sodipodi-0.dtd"
   xmlns:inkscape="http://www.inkscape.org/namespaces/inkscape"
   version="1.1"
   id="Lag_1"
   x="0px"
   y="0px"
   viewBox="0 0 270 71"
   style="enable-background:new 0 0 270 71;"
   xml:space="preserve"
   sodipodi:docname="Fiskeristyrelsen_270px_white.svg"
   inkscape:version="0.92.3 (2405546, 2018-03-11)"><metadata
   id="metadata4045"><rdf:RDF><cc:Work
       rdf:about=""><dc:format>image/svg+xml</dc:format><dc:type
         rdf:resource="http://purl.org/dc/dcmitype/StillImage" /><dc:title>Fiskeristyrelsen_270px</dc:title></cc:Work></rdf:RDF></metadata><defs
   id="defs4043" /><sodipodi:namedview
   pagecolor="#ffffff"
   bordercolor="#666666"
   borderopacity="1"
   objecttolerance="10"
   gridtolerance="10"
   guidetolerance="10"
   inkscape:pageopacity="0"
   inkscape:pageshadow="2"
   inkscape:window-width="2560"
   inkscape:window-height="1364"
   id="namedview4041"
   showgrid="false"
   inkscape:zoom="8.8481481"
   inkscape:cx="135"
   inkscape:cy="35.5"
   inkscape:window-x="1920"
   inkscape:window-y="0"
   inkscape:window-maximized="1"
   inkscape:current-layer="Lag_1" />
<style
   type="text/css"
   id="style3899">
	.st0{fill:#007A6C;}
</style>
<title
   id="title3901">Fiskeristyrelsen_270px</title>
<g
   id="Fiskeristyrelsen_-_DK_2_linjer_grøn"
   style="fill:#ffffff">
	<path
   class="st0"
   d="M26,6c0,0.5-1.3,1-2.2,1s-2.2-0.5-2.2-1l0,0c0-0.6,1.3-1,2.2-1S26,5.5,26,6z"
   id="path3903"
   style="fill:#ffffff" />
	<path
   class="st0"
   d="M26.9,7.8c-1.2,0-2.1,0.8-2.2,2c0,0.4-0.1,0.8-0.1,0.8c-0.4-0.1-0.8,0.1-1,0.5c0,0.1,0,0.2,0,0.3   c0,1.7,1.4,3.1,3.1,3.1c0.1,0,0.1,0,0.2,0"
   id="path3905"
   style="fill:#ffffff" />
	<path
   class="st0"
   d="M26.9,7.8c-1.2,0-2.1,0.8-2.2,2c0,0.4-0.1,0.8-0.1,0.8c-0.4-0.1-0.8,0.1-1,0.5c0,0.1,0,0.2,0,0.3   c0,1.7,1.4,3.1,3.1,3.1c0.1,0,0.1,0,0.2,0"
   id="path3907"
   style="fill:#ffffff" />
	<path
   class="st0"
   d="M44.1,47.6c0.9,0,1-4.7,0-4.7H9.7c-0.9,0-0.9,4.7,0,4.7H44.1z"
   id="path3909"
   style="fill:#ffffff" />
	<path
   class="st0"
   d="M27.9,6c0,0.5,1.3,1,2.2,1s2.2-0.5,2.2-1l0,0c0-0.6-1.3-1-2.2-1S27.9,5.5,27.9,6z"
   id="path3911"
   style="fill:#ffffff" />
	<path
   class="st0"
   d="M26.9,5L26.9,5c0.5,0,1-1.3,1-2.2s-0.5-2.2-1-2.2l0,0c-0.5,0-1,1.3-1,2.2S26.4,5,26.9,5z"
   id="path3913"
   style="fill:#ffffff" />
	<path
   class="st0"
   d="M26.9,14.4c1.7,0.1,3.2-1.2,3.2-2.9c0-0.1,0-0.1,0-0.2c0-0.4-0.3-0.8-0.7-0.8c-0.1,0-0.2,0-0.3,0   c0,0,0-0.4-0.1-0.8c-0.1-1.2-1-2-2.2-2"
   id="path3915"
   style="fill:#ffffff" />
	<path
   class="st0"
   d="M26.9,14.4c1.7,0.1,3.2-1.2,3.2-2.9c0-0.1,0-0.1,0-0.2c0-0.4-0.3-0.8-0.7-0.8c-0.1,0-0.2,0-0.3,0   c0,0,0-0.4-0.1-0.8c-0.1-1.2-1-2-2.2-2"
   id="path3917"
   style="fill:#ffffff" />
	<path
   class="st0"
   d="M26.9,15.9c-0.9,0-1.3,0.6-1.7,2.1c-0.2,0.9-0.6,1.1-1.2,1.1c-0.3,0-0.5,0-1,0c-0.6,0-1,0.4-1,1   c0,1.1,1.5,1.9,1.5,3s-2.1,1-2.1,2.1c0,1.8,2.6,2.2,2.6,3.6c0,1.1-1.7,0.7-1.7,1.9s3,2.3,3,4.9c0,1.4-2.1,1.3-3.4,0   c-1.7-1.7-1.5-3.3-2.4-3.3c-0.4,0-0.8,0.5-1.2,0.5c-0.7-0.1-1.2-0.8-1.1-1.5c0-1,0.6-2.6,0.6-3.5c0.1-0.5-0.2-0.9-0.7-1   c0,0-0.1,0-0.1,0c-0.5,0-0.9,0-1.3,0c-0.6,0-1.1-0.6-1.1-1.5c0-1.3,0.9-3.2,0.9-4.2s-0.5-1.2-1.3-1.3S13,19.5,13,19   c0-0.9,1.4-3.6,5.1-4c0,0,1.9,1.8,3.5,1.8c0.7,0,1.4-0.3,1.4-0.9c0-1.2-3.2-1.8-5.2-1.8c-3.3,0-8.1,1.6-8.1,6.4   c0,4,3.1,8.7,5.8,12.5c0.8,1.2,1.4,2,1.4,2.8c0,1.3-2.5,1.4-3.8,0c-1.7-1.6-1.5-4.9-2.7-4.9c-0.7,0-1.1,0.7-1.9,0.7   c-1.8,0-2.1-4.5-2.5-6.1c-0.2-0.8-0.6-1-1-1s-0.7,0.1-1.2,0.1c-0.8,0-1-2-1-2.3c-0.1-1.3,0.5-2.5,1.5-3.3c0.8,0.6,1.8,0.8,2.8,0.6   c0.1,0,0.6-0.1,0.6-0.5S7,18.1,5.4,18.1s-4.9,1.1-4.9,4.6c0,4.5,7.7,12,7.7,12c0.9,0.9,1.4,2.1,1.5,3.3v2.2h34.4V38   c0.1-1.2,0.6-2.4,1.5-3.3c0,0,7.7-7.5,7.7-12c0-3.5-3.2-4.6-4.9-4.6s-2.3,0.6-2.3,1.1s0.5,0.5,0.5,0.5c1,0.2,2,0,2.8-0.6   c1,0.8,1.5,2,1.5,3.3c0,0.3-0.2,2.3-1,2.3c-0.5,0-0.7-0.1-1.2-0.1s-0.8,0.2-1,1c-0.5,1.6-0.7,6.1-2.5,6.1c-0.7,0-1.2-0.7-1.9-0.7   c-1.2,0-1,3.3-2.7,4.9c-1.4,1.4-3.8,1.3-3.8,0c0-0.8,0.5-1.6,1.4-2.8c2.7-3.8,5.8-8.5,5.8-12.5c0-4.8-4.8-6.4-8.1-6.4   c-2,0-5.2,0.6-5.2,1.8c0,0.6,0.6,0.9,1.3,0.9c1.7,0,3.5-1.8,3.5-1.8c3.8,0.5,5.1,3.1,5.1,4c0,0.4-0.2,0.6-1.1,0.7s-1.3,0.2-1.3,1.3   s0.9,2.9,0.9,4.2c0,0.9-0.5,1.5-1.1,1.5c-0.3,0-0.8,0-1.3,0c-0.5,0-0.8,0.4-0.8,0.9c0,0,0,0.1,0,0.1c0,0.9,0.6,2.5,0.6,3.5   c0.1,0.7-0.4,1.4-1.1,1.5c-0.5,0-0.9-0.5-1.2-0.5c-0.9,0-0.7,1.6-2.4,3.3c-1.3,1.3-3.4,1.4-3.4,0c0-2.6,3-3.8,3-4.9   s-1.7-0.8-1.7-1.9c0-1.3,2.6-1.8,2.6-3.6c0-1.1-2.1-1-2.1-2.1s1.5-1.9,1.5-3c0-0.6-0.4-1-1-1c-0.5,0-0.7,0-1,0   c-0.6,0-1-0.3-1.2-1.1C28.2,16.4,27.8,15.8,26.9,15.9L26.9,15.9z"
   id="path3919"
   style="fill:#ffffff" />
	<path
   class="st0"
   d="M71.3,15.8H75l2.8,7.8h0.1l2.7-7.8h3.7v11.8h-2.7v-8.8h-0.1l-3.1,8.8h-1.7l-3.1-8.8h-0.1v8.8h-2.2V15.8z"
   id="path3921"
   style="fill:#ffffff" />
	<path
   class="st0"
   d="M86.2,16.8c0-0.7,0.7-1.3,1.4-1.3c0.7,0,1.4,0.5,1.4,1.3c0,0,0,0,0,0c0,0.7-0.6,1.3-1.4,1.3c0,0,0,0,0,0   C86.9,18.1,86.2,17.6,86.2,16.8C86.2,16.8,86.2,16.8,86.2,16.8z M86.3,27.6v-8.8h1.6c0.8,0,1,0.3,1,1.6v7.2H86.3z"
   id="path3923"
   style="fill:#ffffff" />
	<path
   class="st0"
   d="M93.3,19.7c1-0.7,2.2-1.1,3.4-1.1c1.2-0.2,2.3,0.6,2.5,1.8c0,0.2,0,0.4,0,0.7v6.5h-2.6v-5.9   c0-0.9-0.3-1.1-1.2-1.1c-0.7,0-1.4,0.2-2.1,0.4v6.6h-2.6v-8.8h1.8C93,18.8,93.3,19,93.3,19.7z"
   id="path3925"
   style="fill:#ffffff" />
	<path
   class="st0"
   d="M101,16.8c0-0.7,0.7-1.3,1.4-1.3c0.7,0,1.4,0.6,1.4,1.3c0,0,0,0,0,0c0,0.7-0.6,1.3-1.4,1.3c0,0,0,0,0,0   C101.7,18.1,101,17.5,101,16.8C101,16.8,101,16.8,101,16.8z M101.1,27.6v-8.8h1.6c0.8,0,1,0.3,1,1.6v7.2H101.1z"
   id="path3927"
   style="fill:#ffffff" />
	<path
   class="st0"
   d="M105.2,27v-1.9h0.8c0.6,0.5,1.5,0.8,2.3,0.7c1,0,1.6-0.3,1.6-0.8s-0.3-0.8-1.6-0.9c-2-0.2-3.1-1-3.1-2.7   s1.4-2.8,3.7-2.8c1,0,2,0.2,2.9,0.6V21H111c-0.6-0.4-1.4-0.6-2.1-0.6c-1,0-1.4,0.3-1.4,0.8s0.5,0.7,1.7,0.8c2.2,0.3,3.1,1,3.1,2.7   s-1.2,2.9-3.9,2.9C107.4,27.7,106.2,27.5,105.2,27z"
   id="path3929"
   style="fill:#ffffff" />
	<path
   class="st0"
   d="M113,18.8h1.1v-2.4h2.6v2.4h1.9v1.6h-1.9v4.5c0,0.8,0.3,1.1,1.2,1.1h0.7v1.5c-0.5,0.2-1.1,0.2-1.6,0.2   c-1.8,0-2.9-0.7-2.9-2.5v-4.8H113V18.8z"
   id="path3931"
   style="fill:#ffffff" />
	<path
   class="st0"
   d="M122,23.7c0.1,1.8,1,2.3,2.4,2.3c0.9,0,1.7-0.2,2.4-0.7h0.8v1.6c-1.1,0.6-2.4,0.9-3.6,0.9   c-3,0-4.7-1.7-4.7-4.5c-0.2-2.4,1.7-4.4,4-4.6c0.2,0,0.3,0,0.5,0c2.7,0,4.2,1.4,4.2,4.3c0,0.3,0,0.7,0,0.8L122,23.7z M122,22.3h3.5   c-0.1-1.6-0.6-2.1-1.6-2.1S122.3,20.6,122,22.3L122,22.3z"
   id="path3933"
   style="fill:#ffffff" />
	<path
   class="st0"
   d="M132.1,21.2v6.4h-2.6v-8.8h1.8c0.4,0,0.7,0.2,0.8,1.1c0.7-0.7,1.6-1.1,2.6-1.1c0.2,0,0.4,0,0.6,0.1v1.9h-0.4   C133.8,20.7,132.9,20.8,132.1,21.2z"
   id="path3935"
   style="fill:#ffffff" />
	<path
   class="st0"
   d="M136.4,16.8c0-0.7,0.7-1.3,1.4-1.3c0.7,0,1.4,0.6,1.4,1.3c0,0,0,0,0,0c0,0.7-0.6,1.3-1.4,1.3c0,0,0,0,0,0   C137,18.1,136.4,17.5,136.4,16.8C136.4,16.8,136.4,16.8,136.4,16.8z M136.5,27.6v-8.8h1.6c0.9,0,1,0.3,1,1.6v7.2H136.5z"
   id="path3937"
   style="fill:#ffffff" />
	<path
   class="st0"
   d="M143.1,23.7c0.1,1.8,1,2.3,2.4,2.3c0.9,0,1.7-0.2,2.4-0.7h0.8v1.6c-1.1,0.6-2.4,0.9-3.6,0.9   c-3,0-4.7-1.7-4.7-4.5c-0.2-2.4,1.7-4.4,4-4.6c0.2,0,0.3,0,0.5,0c2.7,0,4.2,1.4,4.2,4.3c0,0.3,0,0.7,0,0.8H143.1z M143.1,22.3h3.5   c-0.1-1.6-0.6-2.1-1.6-2.1S143.4,20.6,143.1,22.3L143.1,22.3z"
   id="path3939"
   style="fill:#ffffff" />
	<path
   class="st0"
   d="M149.9,18.8h1.1v-2.4h2.6v2.4h1.9v1.6h-1.9v4.5c0,0.8,0.4,1.1,1.2,1.1h0.7v1.5c-0.5,0.2-1.1,0.2-1.6,0.2   c-1.8,0-2.9-0.7-2.9-2.5v-4.8h-1.1L149.9,18.8z"
   id="path3941"
   style="fill:#ffffff" />
	<path
   class="st0"
   d="M159.4,18.8h1.1v-0.7c0-1.7,1.1-2.4,2.9-2.4c0.5,0,1,0.1,1.5,0.2v1.5h-0.7c-0.7,0-1.2,0.1-1.2,0.8v0.6h1.8v1.6   h-1.8v7.2h-2.6v-7.2h-1.1L159.4,18.8z"
   id="path3943"
   style="fill:#ffffff" />
	<path
   class="st0"
   d="M165.4,23.2c0.1-2.6,2.3-4.6,4.9-4.5c2.4,0.1,4.4,2.1,4.5,4.5c-0.1,2.6-2.3,4.6-4.9,4.5   C167.4,27.6,165.5,25.7,165.4,23.2z M172.2,23.2c0-1.9-0.9-2.9-2.1-2.9s-2.1,0.9-2.1,2.9s0.9,2.8,2.1,2.8S172.2,25.1,172.2,23.2   L172.2,23.2z"
   id="path3945"
   style="fill:#ffffff" />
	<path
   class="st0"
   d="M178.8,21.2v6.4h-2.6v-8.8h1.8c0.4,0,0.7,0.2,0.8,1.1c0.7-0.7,1.6-1.1,2.6-1.1c0.2,0,0.4,0,0.6,0.1v1.9h-0.4   C180.6,20.7,179.7,20.8,178.8,21.2z"
   id="path3947"
   style="fill:#ffffff" />
	<path
   class="st0"
   d="M186.7,27.6V15.8h8.2v1.9h-5.5V21h4.2v1.8h-4.2v4.8L186.7,27.6z"
   id="path3949"
   style="fill:#ffffff" />
	<path
   class="st0"
   d="M197.4,27.2l-0.7,0.8h-1.5v-0.5l1-1.2c-0.8-0.8-1.2-2-1.2-3.1c-0.1-2.5,1.9-4.5,4.3-4.6c0.1,0,0.3,0,0.4,0   c0.8,0,1.7,0.2,2.4,0.6l0.6-0.7h1.5v0.5l-1,1.1c1.7,1.9,1.5,4.8-0.3,6.5c-0.9,0.8-2,1.2-3.2,1.2C199,27.7,198.2,27.5,197.4,27.2z    M197.8,24.6l3.2-3.9c-0.4-0.2-0.8-0.3-1.2-0.3c-1.3,0-2.2,1-2.2,2.9C197.6,23.7,197.7,24.1,197.8,24.6z M202,23.2   c0-0.4,0-0.9-0.2-1.3l-3.2,3.8c0.4,0.2,0.8,0.3,1.2,0.3C201.1,26,202,25.1,202,23.2L202,23.2z"
   id="path3951"
   style="fill:#ffffff" />
	<path
   class="st0"
   d="M211.9,26.6c-0.7,0.7-1.7,1.2-2.7,1.1c-2.1,0-3.7-1.5-3.7-4.4c0-3.5,2-4.7,4-4.7c0.9-0.1,1.7,0.2,2.4,0.8v-3.6   h1.6c0.9,0,1,0.2,1,1.4v10.4h-1.8C212.3,27.6,212,27.4,211.9,26.6z M211.9,25.2V21c-0.5-0.3-1-0.5-1.6-0.4c-1.1,0-2.1,0.5-2.1,2.7   c0,2,0.6,2.8,1.8,2.8C210.7,26,211.4,25.7,211.9,25.2z"
   id="path3953"
   style="fill:#ffffff" />
	<path
   class="st0"
   d="M218.5,23.7c0.1,1.8,1,2.3,2.4,2.3c0.9,0,1.7-0.2,2.4-0.7h0.8v1.6c-1.1,0.6-2.4,0.9-3.6,0.9   c-3,0-4.7-1.7-4.7-4.5c-0.2-2.4,1.7-4.4,4-4.6c0.2,0,0.3,0,0.5,0c2.7,0,4.2,1.4,4.2,4.3c0,0.3,0,0.7,0,0.8L218.5,23.7z M218.5,22.3   h3.5c-0.1-1.6-0.6-2.1-1.6-2.1S218.8,20.6,218.5,22.3L218.5,22.3z"
   id="path3955"
   style="fill:#ffffff" />
	<path
   class="st0"
   d="M225.1,19.4v-0.6h2.4l2.4,6.1l0,0l2.1-6.1h2.2v0.6l-3.2,8.2h-2.5L225.1,19.4z"
   id="path3957"
   style="fill:#ffffff" />
	<path
   class="st0"
   d="M240.7,26.7c-0.7,0.7-1.7,1.1-2.7,1c-1.7,0-3-0.9-3-2.6s1.6-2.8,3.7-2.8c0.6,0,1.2,0.1,1.9,0.2v-0.8   c0-0.8-0.5-1.2-1.7-1.2c-0.9,0-1.7,0.2-2.4,0.7h-0.7v-1.8c1.1-0.5,2.3-0.8,3.5-0.7c2.6,0,3.9,0.8,3.9,2.8v6.1H242   C241.2,27.6,240.9,27.4,240.7,26.7z M240.5,23.8c-0.4-0.1-0.9-0.1-1.3-0.1c-1,0-1.7,0.4-1.7,1.2s0.6,1.2,1.4,1.2   c0.6,0,1.2-0.3,1.6-0.7L240.5,23.8z"
   id="path3959"
   style="fill:#ffffff" />
	<path
   class="st0"
   d="M247.6,21.2v6.4H245v-8.8h1.8c0.4,0,0.7,0.2,0.8,1.1c0.7-0.7,1.6-1.1,2.6-1.1c0.2,0,0.4,0,0.6,0.1v1.9h-0.4   C249.3,20.7,248.4,20.8,247.6,21.2z"
   id="path3961"
   style="fill:#ffffff" />
	<path
   class="st0"
   d="M253.8,23.7c0.1,1.8,1,2.3,2.4,2.3c0.9,0,1.7-0.2,2.5-0.7h0.8v1.6c-1.1,0.6-2.4,0.9-3.6,0.9   c-3,0-4.7-1.7-4.7-4.5c-0.2-2.4,1.7-4.4,4-4.6c0.2,0,0.3,0,0.5,0c2.7,0,4.2,1.4,4.2,4.3c0,0.3,0,0.7,0,0.8L253.8,23.7z M253.8,22.3   h3.5c0-1.6-0.6-2.1-1.6-2.1S254.1,20.6,253.8,22.3L253.8,22.3z"
   id="path3963"
   style="fill:#ffffff" />
	<path
   class="st0"
   d="M263.9,21.2v6.4h-2.6v-8.8h1.7c0.4,0,0.7,0.2,0.8,1.1c0.7-0.7,1.6-1.1,2.6-1.1c0.2,0,0.4,0,0.6,0.1v1.9h-0.4   C265.6,20.7,264.7,20.9,263.9,21.2z"
   id="path3965"
   style="fill:#ffffff" />
	<path
   class="st0"
   d="M267.7,27.7c0-0.3-0.3-0.3-0.6-0.5c-0.4-0.2-0.6-0.6-0.5-1c0.1-0.7,0.7-1.2,1.4-1.2c0,0,0,0,0.1,0   c0.8,0,1.5,0.6,1.5,1.4c0,0.1,0,0.1,0,0.2c0,1.7-0.9,2.6-3,2.8v-1.1C267.3,28.3,267.7,28,267.7,27.7z"
   id="path3967"
   style="fill:#ffffff" />
	<path
   class="st0"
   d="M71.3,47.6V35.8H74v9.9h5.1v1.8L71.3,47.6z"
   id="path3969"
   style="fill:#ffffff" />
	<path
   class="st0"
   d="M85.8,46.7c-0.7,0.7-1.7,1.1-2.7,1c-1.7,0-3-0.9-3-2.7s1.6-2.8,3.7-2.8c0.6,0,1.2,0.1,1.8,0.2v-0.8   c0-0.8-0.5-1.2-1.7-1.2c-0.9,0-1.7,0.2-2.4,0.7h-0.7v-1.7c1.1-0.5,2.3-0.8,3.5-0.7c2.6,0,3.9,0.8,3.9,2.8v6.1h-1.1   C86.3,47.6,86,47.4,85.8,46.7z M85.7,43.8c-0.4-0.1-0.9-0.1-1.3-0.1c-1,0-1.7,0.3-1.7,1.2s0.6,1.2,1.4,1.2c0.6,0,1.2-0.3,1.6-0.7   L85.7,43.8z"
   id="path3971"
   style="fill:#ffffff" />
	<path
   class="st0"
   d="M92.7,39.7c1-0.7,2.1-1.1,3.3-1.1c1.2-0.2,2.3,0.6,2.5,1.8c0,0.2,0,0.4,0,0.7v6.5h-2.5v-5.9   c0-0.9-0.3-1.1-1.2-1.1c-0.7,0-1.4,0.2-2.1,0.4v6.6h-2.6v-8.8h1.8C92.3,38.7,92.6,38.9,92.7,39.7z"
   id="path3973"
   style="fill:#ffffff" />
	<path
   class="st0"
   d="M106.4,46.6c-0.7,0.7-1.7,1.2-2.7,1.1c-2.1,0-3.7-1.5-3.7-4.4c0-3.5,2-4.7,4-4.7c0.9-0.1,1.7,0.2,2.4,0.8v-3.6   h1.6c0.9,0,1,0.2,1,1.4v10.4h-1.8C106.7,47.6,106.5,47.4,106.4,46.6z M106.3,45.2v-4.3c-0.5-0.3-1-0.5-1.6-0.4   c-1.1,0-2.1,0.5-2.1,2.7c0,2,0.6,2.8,1.8,2.8C105.1,46,105.8,45.7,106.3,45.2z"
   id="path3975"
   style="fill:#ffffff" />
	<path
   class="st0"
   d="M113.4,39.6c0.8-0.7,1.8-1,2.8-1c1.8,0,3.6,1.1,3.6,4.4s-2,4.7-4,4.7c-1,0-2-0.3-2.8-0.9   c-0.2,0.4-0.6,0.7-1,0.8h-1.2V35.8h1.6c0.8,0,1,0.2,1,1.4L113.4,39.6z M113.4,40.9v4.5c0.5,0.4,1.1,0.6,1.7,0.5   c1.1,0,2.1-0.4,2.1-2.7s-0.9-2.8-2-2.8C114.6,40.5,114,40.7,113.4,40.9L113.4,40.9z"
   id="path3977"
   style="fill:#ffffff" />
	<path
   class="st0"
   d="M123.8,41.2v6.4h-2.6v-8.8h1.8c0.4,0,0.7,0.2,0.8,1.1c0.7-0.7,1.6-1.1,2.6-1.1c0.2,0,0.4,0,0.6,0.1v1.9h-0.4   C125.6,40.6,124.7,40.8,123.8,41.2z"
   id="path3979"
   style="fill:#ffffff" />
	<path
   class="st0"
   d="M134.1,45.4v-6.7h2.6v8.8h-1.8c-0.4,0-0.7-0.1-0.8-0.8c-0.9,0.6-2,0.9-3.2,0.9c-1.6,0-2.7-0.6-2.7-2.4v-6.5   h2.6v5.9c0,1,0.5,1.2,1.3,1.2C132.8,45.8,133.5,45.7,134.1,45.4z"
   id="path3981"
   style="fill:#ffffff" />
	<path
   class="st0"
   d="M147.2,47.1c0,2.2-1.7,3.3-4.8,3.3c-1.3,0.1-2.6-0.2-3.7-0.7v-1.8h0.8c0.8,0.5,1.7,0.8,2.6,0.7   c1.7,0,2.5-0.5,2.5-1.7v-0.5c-0.7,0.6-1.6,0.9-2.6,0.9c-2,0-3.8-1.2-3.8-4.1c0-3.3,2-4.5,4.1-4.5c0.9,0,1.8,0.3,2.6,0.9   c0.2-0.5,0.6-0.7,1.1-0.7h1.3L147.2,47.1z M144.6,44.9V41c-0.5-0.4-1.1-0.5-1.7-0.5c-1.1,0-2.1,0.5-2.1,2.5s0.6,2.6,1.9,2.6   C143.5,45.5,144.1,45.3,144.6,44.9L144.6,44.9z"
   id="path3983"
   style="fill:#ffffff" />
	<path
   class="st0"
   d="M152,43.2c0.1-2.6,2.3-4.6,4.9-4.5c2.4,0.1,4.4,2.1,4.5,4.5c-0.1,2.6-2.3,4.6-4.9,4.5   C154.1,47.6,152.1,45.6,152,43.2z M158.8,43.2c0-1.9-0.9-2.9-2.1-2.9s-2.1,0.9-2.1,2.9s0.9,2.7,2.1,2.7S158.8,45.1,158.8,43.2   L158.8,43.2z"
   id="path3985"
   style="fill:#ffffff" />
	<path
   class="st0"
   d="M171.4,47.1c0,2.2-1.7,3.3-4.8,3.3c-1.3,0.1-2.6-0.2-3.7-0.7v-1.8h0.8c0.8,0.5,1.7,0.8,2.6,0.7   c1.7,0,2.5-0.5,2.5-1.7v-0.5c-0.7,0.6-1.6,0.9-2.6,0.9c-2,0-3.8-1.2-3.8-4.1c0-3.3,2-4.5,4.1-4.5c0.9,0,1.8,0.3,2.6,0.9   c0.2-0.5,0.6-0.7,1.1-0.7h1.3L171.4,47.1z M168.8,44.9V41c-0.5-0.4-1.1-0.5-1.7-0.5c-1.1,0-2.1,0.5-2.1,2.5s0.6,2.6,1.9,2.6   C167.6,45.5,168.2,45.3,168.8,44.9L168.8,44.9z"
   id="path3987"
   style="fill:#ffffff" />
	<path
   class="st0"
   d="M176.8,47.6V35.8h8.2v1.9h-5.5v3.2h4.2v1.8h-4.2v4.8L176.8,47.6z"
   id="path3989"
   style="fill:#ffffff" />
	<path
   class="st0"
   d="M186.2,36.8c0-0.7,0.7-1.3,1.4-1.3c0.7,0,1.4,0.6,1.4,1.3c0,0,0,0,0,0c0,0.7-0.7,1.3-1.4,1.3   C186.9,38,186.2,37.5,186.2,36.8z M186.3,47.5v-8.8h1.6c0.9,0,1,0.3,1,1.6v7.2H186.3z"
   id="path3991"
   style="fill:#ffffff" />
	<path
   class="st0"
   d="M190.4,46.9v-1.8h0.8c0.6,0.5,1.5,0.8,2.3,0.7c1,0,1.6-0.3,1.6-0.8s-0.3-0.8-1.6-0.9c-2-0.2-3.1-1-3.1-2.7   s1.4-2.8,3.7-2.8c1,0,2,0.2,2.9,0.6V41h-0.8c-0.6-0.4-1.4-0.6-2.1-0.6c-1,0-1.4,0.3-1.4,0.8s0.5,0.7,1.7,0.8c2.2,0.3,3.1,1,3.1,2.7   s-1.2,2.9-3.9,2.9C192.5,47.7,191.4,47.4,190.4,46.9z"
   id="path3993"
   style="fill:#ffffff" />
	<path
   class="st0"
   d="M201.4,42.3l3.3-3.5h2.1v0.6l-2.7,2.8l3.1,4.7v0.7h-2.4l-2.4-3.7l-1,0.9v2.8h-2.6V35.8h1.6c0.9,0,1,0.2,1,1.4   L201.4,42.3z"
   id="path3995"
   style="fill:#ffffff" />
	<path
   class="st0"
   d="M210.2,43.7c0.1,1.8,1,2.3,2.4,2.3c0.9,0,1.7-0.2,2.4-0.7h0.8v1.6c-1.1,0.6-2.4,0.9-3.6,0.9   c-3,0-4.7-1.7-4.7-4.5c-0.2-2.4,1.7-4.4,4-4.6c0.2,0,0.3,0,0.5,0c2.7,0,4.2,1.4,4.2,4.3c0,0.3,0,0.7,0,0.8H210.2z M210.2,42.2h3.5   c-0.1-1.6-0.6-2.1-1.6-2.1S210.4,40.6,210.2,42.2L210.2,42.2z"
   id="path3997"
   style="fill:#ffffff" />
	<path
   class="st0"
   d="M220.2,41.2v6.4h-2.6v-8.8h1.8c0.4,0,0.7,0.2,0.8,1.1c0.7-0.7,1.6-1.1,2.6-1.1c0.2,0,0.4,0,0.6,0.1v1.9h-0.4   C222,40.6,221,40.8,220.2,41.2z"
   id="path3999"
   style="fill:#ffffff" />
	<path
   class="st0"
   d="M224.5,36.8c0-0.7,0.7-1.3,1.4-1.3c0.7,0,1.4,0.6,1.4,1.3c0,0,0,0,0,0c0,0.7-0.7,1.3-1.4,1.3   C225.2,38,224.6,37.5,224.5,36.8z M224.6,47.5v-8.8h1.6c0.9,0,1,0.3,1,1.6v7.2H224.6z"
   id="path4001"
   style="fill:#ffffff" />
	<polygon
   class="st0"
   points="71.5,67.7 72.8,67.7 72.8,62.3 77.5,62.3 77.5,61.3 72.8,61.3 72.8,56.7 79.2,56.7 79.2,55.7    71.5,55.7  "
   id="polygon4003"
   style="fill:#ffffff" />
	<path
   class="st0"
   d="M80.8,58.7h-0.4v9.1h1.2v-8C81.5,58.9,81.5,58.7,80.8,58.7z"
   id="path4005"
   style="fill:#ffffff" />
	<path
   class="st0"
   d="M81,56.2c-0.4,0-0.7,0.3-0.8,0.7c0,0.4,0.3,0.8,0.8,0.8c0.4,0,0.8-0.3,0.8-0.8C81.7,56.5,81.4,56.2,81,56.2z"
   id="path4007"
   style="fill:#ffffff" />
	<path
   class="st0"
   d="M86.7,62.5c-1.7-0.3-2.3-0.6-2.3-1.5s0.7-1.4,2.1-1.4c0.8-0.1,1.6,0.2,2.2,0.7l0,0h0.6v-0.9h-0.1   c-0.8-0.5-1.8-0.7-2.8-0.7c-2,0-3.3,1-3.3,2.5c0,1.8,1.6,2.3,3,2.5c2,0.3,2.3,0.8,2.3,1.6c0,1.1-0.8,1.7-2.3,1.7   c-0.9,0-1.7-0.3-2.4-0.8l0,0h-0.6v0.9h0.1c0.9,0.6,2,0.9,3.1,0.8c2.3,0,3.5-1,3.5-2.8S88.5,62.8,86.7,62.5z"
   id="path4009"
   style="fill:#ffffff" />
	<path
   class="st0"
   d="M98,59.3L98,59.3v-0.6h-0.9l-4.5,4.7v-6.8c0-0.7-0.1-1-0.7-1h-0.5v12.1h1.2v-2.9l1.5-1.5l3.2,4.4h1v-0.5   l-3.4-4.7L98,59.3z"
   id="path4011"
   style="fill:#ffffff" />
	<path
   class="st0"
   d="M102.8,58.6c-2.5,0-4.2,1.9-4.2,4.7c0,2.8,1.7,4.6,4.5,4.6c1.2,0.1,2.4-0.3,3.4-1h0.1v-0.9H106l0,0   c-0.8,0.6-1.8,0.9-2.8,0.9c-2.2,0-3.3-1.2-3.3-3.4h6.9v-0.2c0-0.1,0-0.2,0-0.3C106.8,60.1,105.4,58.6,102.8,58.6z M102.8,59.6   c1.7,0,2.6,1,2.7,2.9h-5.7C100.1,60.6,101.2,59.5,102.8,59.6L102.8,59.6z"
   id="path4013"
   style="fill:#ffffff" />
	<path
   class="st0"
   d="M112.3,58.6c-1.1,0-2.1,0.5-2.8,1.3v-0.1c0-0.8-0.1-1.1-0.6-1.1h-0.6v9.1h1.2v-6.6c0.7-0.9,1.7-1.5,2.9-1.5   h0.4h0.2v-1h-0.1C112.7,58.6,112.5,58.6,112.3,58.6z"
   id="path4015"
   style="fill:#ffffff" />
	<path
   class="st0"
   d="M115,56.2c-0.4,0-0.7,0.3-0.8,0.7c0,0.4,0.3,0.8,0.8,0.8c0.4,0,0.8-0.3,0.8-0.8   C115.7,56.5,115.4,56.2,115,56.2z"
   id="path4017"
   style="fill:#ffffff" />
	<path
   class="st0"
   d="M114.8,58.7h-0.4v9.1h1.2v-8C115.6,58.9,115.5,58.7,114.8,58.7z"
   id="path4019"
   style="fill:#ffffff" />
	<path
   class="st0"
   d="M120.7,62.5c-1.7-0.3-2.3-0.6-2.3-1.5s0.7-1.4,2.1-1.4c0.8-0.1,1.6,0.2,2.2,0.7l0,0h0.6v-0.9h-0.1   c-0.8-0.5-1.8-0.7-2.8-0.7c-2,0-3.3,1-3.3,2.5c0,1.8,1.6,2.3,3,2.5c2,0.3,2.3,0.8,2.3,1.6c0,1.1-0.8,1.7-2.3,1.7   c-0.9,0-1.8-0.2-2.5-0.8l0,0h-0.6V67h0.1c0.9,0.6,2,0.9,3.1,0.8c2.3,0,3.5-1,3.5-2.8S122.6,62.8,120.7,62.5z"
   id="path4021"
   style="fill:#ffffff" />
	<path
   class="st0"
   d="M126.9,65.6v-6h2.4v-1h-2.4v-2.4h-1.2v2.4h-1.2v1h1.2v6c0,1.4,0.8,2.1,2.3,2.1c0.5,0,0.9,0,1.4-0.1h0.1v-0.9   h-1.2C127.3,66.8,126.9,66.5,126.9,65.6z"
   id="path4023"
   style="fill:#ffffff" />
	<polygon
   class="st0"
   points="134.3,65.6 131.1,58.7 130,58.7 130,59.1 133.7,67 132.3,70 132.3,70.5 133.4,70.5 138.4,59.1    138.4,58.7 137.3,58.7  "
   id="polygon4025"
   style="fill:#ffffff" />
	<path
   class="st0"
   d="M143.8,58.6c-1.1,0-2.1,0.5-2.8,1.3v-0.1c0-0.8-0.1-1.1-0.6-1.1h-0.6v9.1h1.2v-6.6c0.7-0.9,1.7-1.5,2.9-1.5   h0.4h0.2v-1h-0.1C144.2,58.6,144,58.6,143.8,58.6z"
   id="path4027"
   style="fill:#ffffff" />
	<path
   class="st0"
   d="M148.8,58.6c-2.5,0-4.2,1.9-4.2,4.7c0,2.8,1.7,4.6,4.5,4.6c1.2,0.1,2.4-0.3,3.4-1h0.1v-0.9h-0.6l0,0   c-0.8,0.6-1.8,0.9-2.8,0.9c-2.2,0-3.3-1.2-3.3-3.4h6.9v-0.2c0-0.1,0-0.2,0-0.3C152.8,60.1,151.4,58.6,148.8,58.6z M148.8,59.6   c1.7,0,2.6,1,2.7,2.9h-5.7C146.1,60.6,147.2,59.5,148.8,59.6L148.8,59.6z"
   id="path4029"
   style="fill:#ffffff" />
	<path
   class="st0"
   d="M154.8,55.7h-0.5v12.1h1.2V56.6C155.5,55.9,155.4,55.7,154.8,55.7z"
   id="path4031"
   style="fill:#ffffff" />
	<path
   class="st0"
   d="M160.6,62.5c-1.7-0.3-2.3-0.6-2.3-1.5s0.7-1.4,2.1-1.4c0.8-0.1,1.6,0.2,2.2,0.7l0,0h0.6v-0.9h-0.1   c-0.8-0.5-1.8-0.7-2.8-0.7c-2,0-3.3,1-3.3,2.5c0,1.8,1.6,2.3,3,2.5c2,0.3,2.3,0.8,2.3,1.6c0,1.1-0.8,1.7-2.3,1.7   c-0.9,0-1.8-0.2-2.5-0.8l0,0H157V67h0.1c0.9,0.6,2,0.9,3.1,0.8c2.3,0,3.5-1,3.5-2.8S162.4,62.8,160.6,62.5z"
   id="path4033"
   style="fill:#ffffff" />
	<path
   class="st0"
   d="M168.8,58.6c-2.5,0-4.2,1.9-4.2,4.7c0,2.8,1.7,4.6,4.5,4.6c1.2,0.1,2.4-0.3,3.4-1h0.1v-0.9h-0.6l0,0   c-0.8,0.6-1.8,0.9-2.8,0.9c-2.2,0-3.3-1.2-3.3-3.4h6.9v-0.2c0-0.1,0-0.2,0-0.3C172.7,60.1,171.3,58.6,168.8,58.6z M168.8,59.6   c1.7,0,2.6,1,2.7,2.9h-5.7C166.1,60.6,167.1,59.5,168.8,59.6L168.8,59.6z"
   id="path4035"
   style="fill:#ffffff" />
	<path
   class="st0"
   d="M179.3,58.6c-1.4,0-2.8,0.5-3.9,1.3v-0.2c0-0.7-0.1-1-0.6-1h-0.6v9.1h1.2V61c1-0.8,2.2-1.3,3.5-1.4   c1.2,0,1.7,0.5,1.7,1.6v6.6h1.2v-6.7c0.2-1.2-0.7-2.3-1.9-2.5C179.7,58.5,179.5,58.5,179.3,58.6z"
   id="path4037"
   style="fill:#ffffff" />
</g>
</svg>