<?xml version="1.0" encoding="UTF-8" standalone="no"?>
<!-- Generator: Adobe Illustrator 21.0.1, SVG Export Plug-In . SVG Version: 6.00 Build 0)  -->

<svg
   xmlns:dc="http://purl.org/dc/elements/1.1/"
   xmlns:cc="http://creativecommons.org/ns#"
   xmlns:rdf="http://www.w3.org/1999/02/22-rdf-syntax-ns#"
   xmlns:svg="http://www.w3.org/2000/svg"
   xmlns="http://www.w3.org/2000/svg"
   xmlns:sodipodi="http://sodipodi.sourceforge.net/DTD/sodipodi-0.dtd"
   xmlns:inkscape="http://www.inkscape.org/namespaces/inkscape"
   version="1.1"
   id="Lag_1"
   x="0px"
   y="0px"
   viewBox="0 0 54.7658 47.118294"
   xml:space="preserve"
   sodipodi:docname="Fiskeristyrelsen_crown.svg"
   inkscape:version="0.92.3 (2405546, 2018-03-11)"
   width="54.7658"
   height="47.118294"><metadata
   id="metadata4045"><rdf:RDF><cc:Work
       rdf:about=""><dc:format>image/svg+xml</dc:format><dc:type
         rdf:resource="http://purl.org/dc/dcmitype/StillImage" /><dc:title>Fiskeristyrelsen_270px</dc:title></cc:Work></rdf:RDF></metadata><defs
   id="defs4043"><clipPath
     clipPathUnits="userSpaceOnUse"
     id="clipPath89"><rect
       style="fill:#4d4d4d"
       id="rect91"
       width="55.039764"
       height="47.580578"
       x="0.22603619"
       y="0.13771416" /></clipPath></defs><sodipodi:namedview
   pagecolor="#ffffff"
   bordercolor="#666666"
   borderopacity="1"
   objecttolerance="10"
   gridtolerance="10"
   guidetolerance="10"
   inkscape:pageopacity="0"
   inkscape:pageshadow="2"
   inkscape:window-width="2560"
   inkscape:window-height="1364"
   id="namedview4041"
   showgrid="false"
   inkscape:zoom="8.8481481"
   inkscape:cx="109.19519"
   inkscape:cy="7.697572"
   inkscape:window-x="4480"
   inkscape:window-y="0"
   inkscape:window-maximized="1"
   inkscape:current-layer="Lag_1" />
<style
   type="text/css"
   id="style3899">
	.st0{fill:#007A6C;}
</style>
<title
   id="title3901">Fiskeristyrelsen_270px</title>
<g
   id="Fiskeristyrelsen_-_DK_2_linjer_grøn"
   style="fill:#000000;fill-opacity:1"
   clip-path="url(#clipPath89)"
   transform="translate(-0.5,-0.6)">
	<path
   class="st0"
   d="M 26,6 C 26,6.5 24.7,7 23.8,7 22.9,7 21.6,6.5 21.6,6 v 0 c 0,-0.6 1.3,-1 2.2,-1 0.9,0 2.2,0.5 2.2,1 z"
   id="path3903"
   style="fill:#000000;fill-opacity:1"
   inkscape:connector-curvature="0" />
	<path
   class="st0"
   d="m 26.9,7.8 c -1.2,0 -2.1,0.8 -2.2,2 0,0.4 -0.1,0.8 -0.1,0.8 -0.4,-0.1 -0.8,0.1 -1,0.5 0,0.1 0,0.2 0,0.3 0,1.7 1.4,3.1 3.1,3.1 0.1,0 0.1,0 0.2,0"
   id="path3905"
   style="fill:#000000;fill-opacity:1"
   inkscape:connector-curvature="0" />
	<path
   class="st0"
   d="m 26.9,7.8 c -1.2,0 -2.1,0.8 -2.2,2 0,0.4 -0.1,0.8 -0.1,0.8 -0.4,-0.1 -0.8,0.1 -1,0.5 0,0.1 0,0.2 0,0.3 0,1.7 1.4,3.1 3.1,3.1 0.1,0 0.1,0 0.2,0"
   id="path3907"
   style="fill:#000000;fill-opacity:1"
   inkscape:connector-curvature="0" />
	<path
   class="st0"
   d="m 44.1,47.6 c 0.9,0 1,-4.7 0,-4.7 H 9.7 c -0.9,0 -0.9,4.7 0,4.7 z"
   id="path3909"
   style="fill:#000000;fill-opacity:1"
   inkscape:connector-curvature="0" />
	<path
   class="st0"
   d="m 27.9,6 c 0,0.5 1.3,1 2.2,1 0.9,0 2.2,-0.5 2.2,-1 V 6 C 32.3,5.4 31,5 30.1,5 29.2,5 27.9,5.5 27.9,6 Z"
   id="path3911"
   style="fill:#000000;fill-opacity:1"
   inkscape:connector-curvature="0" />
	<path
   class="st0"
   d="m 26.9,5 v 0 c 0.5,0 1,-1.3 1,-2.2 0,-0.9 -0.5,-2.2 -1,-2.2 v 0 c -0.5,0 -1,1.3 -1,2.2 0,0.9 0.5,2.2 1,2.2 z"
   id="path3913"
   style="fill:#000000;fill-opacity:1"
   inkscape:connector-curvature="0" />
	<path
   class="st0"
   d="m 26.9,14.4 c 1.7,0.1 3.2,-1.2 3.2,-2.9 0,-0.1 0,-0.1 0,-0.2 0,-0.4 -0.3,-0.8 -0.7,-0.8 -0.1,0 -0.2,0 -0.3,0 0,0 0,-0.4 -0.1,-0.8 -0.1,-1.2 -1,-2 -2.2,-2"
   id="path3915"
   style="fill:#000000;fill-opacity:1"
   inkscape:connector-curvature="0" />
	<path
   class="st0"
   d="m 26.9,14.4 c 1.7,0.1 3.2,-1.2 3.2,-2.9 0,-0.1 0,-0.1 0,-0.2 0,-0.4 -0.3,-0.8 -0.7,-0.8 -0.1,0 -0.2,0 -0.3,0 0,0 0,-0.4 -0.1,-0.8 -0.1,-1.2 -1,-2 -2.2,-2"
   id="path3917"
   style="fill:#000000;fill-opacity:1"
   inkscape:connector-curvature="0" />
	<path
   class="st0"
   d="m 26.9,15.9 c -0.9,0 -1.3,0.6 -1.7,2.1 -0.2,0.9 -0.6,1.1 -1.2,1.1 -0.3,0 -0.5,0 -1,0 -0.6,0 -1,0.4 -1,1 0,1.1 1.5,1.9 1.5,3 0,1.1 -2.1,1 -2.1,2.1 0,1.8 2.6,2.2 2.6,3.6 0,1.1 -1.7,0.7 -1.7,1.9 0,1.2 3,2.3 3,4.9 0,1.4 -2.1,1.3 -3.4,0 -1.7,-1.7 -1.5,-3.3 -2.4,-3.3 -0.4,0 -0.8,0.5 -1.2,0.5 -0.7,-0.1 -1.2,-0.8 -1.1,-1.5 0,-1 0.6,-2.6 0.6,-3.5 0.1,-0.5 -0.2,-0.9 -0.7,-1 0,0 -0.1,0 -0.1,0 -0.5,0 -0.9,0 -1.3,0 -0.6,0 -1.1,-0.6 -1.1,-1.5 0,-1.3 0.9,-3.2 0.9,-4.2 0,-1 -0.5,-1.2 -1.3,-1.3 C 13.4,19.7 13,19.5 13,19 c 0,-0.9 1.4,-3.6 5.1,-4 0,0 1.9,1.8 3.5,1.8 0.7,0 1.4,-0.3 1.4,-0.9 0,-1.2 -3.2,-1.8 -5.2,-1.8 -3.3,0 -8.1,1.6 -8.1,6.4 0,4 3.1,8.7 5.8,12.5 0.8,1.2 1.4,2 1.4,2.8 0,1.3 -2.5,1.4 -3.8,0 -1.7,-1.6 -1.5,-4.9 -2.7,-4.9 -0.7,0 -1.1,0.7 -1.9,0.7 -1.8,0 -2.1,-4.5 -2.5,-6.1 -0.2,-0.8 -0.6,-1 -1,-1 -0.4,0 -0.7,0.1 -1.2,0.1 -0.8,0 -1,-2 -1,-2.3 C 2.7,21 3.3,19.8 4.3,19 c 0.8,0.6 1.8,0.8 2.8,0.6 0.1,0 0.6,-0.1 0.6,-0.5 0,-0.4 -0.7,-1 -2.3,-1 -1.6,0 -4.9,1.1 -4.9,4.6 0,4.5 7.7,12 7.7,12 0.9,0.9 1.4,2.1 1.5,3.3 v 2.2 H 44.1 V 38 c 0.1,-1.2 0.6,-2.4 1.5,-3.3 0,0 7.7,-7.5 7.7,-12 0,-3.5 -3.2,-4.6 -4.9,-4.6 -1.7,0 -2.3,0.6 -2.3,1.1 0,0.5 0.5,0.5 0.5,0.5 1,0.2 2,0 2.8,-0.6 1,0.8 1.5,2 1.5,3.3 0,0.3 -0.2,2.3 -1,2.3 -0.5,0 -0.7,-0.1 -1.2,-0.1 -0.5,0 -0.8,0.2 -1,1 -0.5,1.6 -0.7,6.1 -2.5,6.1 -0.7,0 -1.2,-0.7 -1.9,-0.7 -1.2,0 -1,3.3 -2.7,4.9 -1.4,1.4 -3.8,1.3 -3.8,0 0,-0.8 0.5,-1.6 1.4,-2.8 2.7,-3.8 5.8,-8.5 5.8,-12.5 0,-4.8 -4.8,-6.4 -8.1,-6.4 -2,0 -5.2,0.6 -5.2,1.8 0,0.6 0.6,0.9 1.3,0.9 1.7,0 3.5,-1.8 3.5,-1.8 3.8,0.5 5.1,3.1 5.1,4 0,0.4 -0.2,0.6 -1.1,0.7 -0.9,0.1 -1.3,0.2 -1.3,1.3 0,1.1 0.9,2.9 0.9,4.2 0,0.9 -0.5,1.5 -1.1,1.5 -0.3,0 -0.8,0 -1.3,0 -0.5,0 -0.8,0.4 -0.8,0.9 0,0 0,0.1 0,0.1 0,0.9 0.6,2.5 0.6,3.5 0.1,0.7 -0.4,1.4 -1.1,1.5 -0.5,0 -0.9,-0.5 -1.2,-0.5 -0.9,0 -0.7,1.6 -2.4,3.3 -1.3,1.3 -3.4,1.4 -3.4,0 0,-2.6 3,-3.8 3,-4.9 0,-1.1 -1.7,-0.8 -1.7,-1.9 0,-1.3 2.6,-1.8 2.6,-3.6 0,-1.1 -2.1,-1 -2.1,-2.1 0,-1.1 1.5,-1.9 1.5,-3 0,-0.6 -0.4,-1 -1,-1 -0.5,0 -0.7,0 -1,0 -0.6,0 -1,-0.3 -1.2,-1.1 -0.3,-1.6 -0.7,-2.2 -1.6,-2.1 z"
   id="path3919"
   style="fill:#000000;fill-opacity:1"
   inkscape:connector-curvature="0" />
	<path
   class="st0"
   d="M 71.3,15.8 H 75 l 2.8,7.8 h 0.1 l 2.7,-7.8 h 3.7 v 11.8 h -2.7 v -8.8 h -0.1 l -3.1,8.8 h -1.7 l -3.1,-8.8 h -0.1 v 8.8 h -2.2 z"
   id="path3921"
   style="fill:#000000;fill-opacity:1"
   inkscape:connector-curvature="0" />
	<path
   class="st0"
   d="m 86.2,16.8 c 0,-0.7 0.7,-1.3 1.4,-1.3 0.7,0 1.4,0.5 1.4,1.3 0,0 0,0 0,0 0,0.7 -0.6,1.3 -1.4,1.3 0,0 0,0 0,0 -0.7,0 -1.4,-0.5 -1.4,-1.3 0,0 0,0 0,0 z m 0.1,10.8 v -8.8 h 1.6 c 0.8,0 1,0.3 1,1.6 v 7.2 z"
   id="path3923"
   style="fill:#000000;fill-opacity:1"
   inkscape:connector-curvature="0" />
	<path
   class="st0"
   d="m 93.3,19.7 c 1,-0.7 2.2,-1.1 3.4,-1.1 1.2,-0.2 2.3,0.6 2.5,1.8 0,0.2 0,0.4 0,0.7 v 6.5 h -2.6 v -5.9 c 0,-0.9 -0.3,-1.1 -1.2,-1.1 -0.7,0 -1.4,0.2 -2.1,0.4 v 6.6 h -2.6 v -8.8 h 1.8 c 0.5,0 0.8,0.2 0.8,0.9 z"
   id="path3925"
   style="fill:#000000;fill-opacity:1"
   inkscape:connector-curvature="0" />
	<path
   class="st0"
   d="m 101,16.8 c 0,-0.7 0.7,-1.3 1.4,-1.3 0.7,0 1.4,0.6 1.4,1.3 0,0 0,0 0,0 0,0.7 -0.6,1.3 -1.4,1.3 0,0 0,0 0,0 -0.7,0 -1.4,-0.6 -1.4,-1.3 0,0 0,0 0,0 z m 0.1,10.8 v -8.8 h 1.6 c 0.8,0 1,0.3 1,1.6 v 7.2 z"
   id="path3927"
   style="fill:#000000;fill-opacity:1"
   inkscape:connector-curvature="0" />
	<path
   class="st0"
   d="m 105.2,27 v -1.9 h 0.8 c 0.6,0.5 1.5,0.8 2.3,0.7 1,0 1.6,-0.3 1.6,-0.8 0,-0.5 -0.3,-0.8 -1.6,-0.9 -2,-0.2 -3.1,-1 -3.1,-2.7 0,-1.7 1.4,-2.8 3.7,-2.8 1,0 2,0.2 2.9,0.6 V 21 H 111 c -0.6,-0.4 -1.4,-0.6 -2.1,-0.6 -1,0 -1.4,0.3 -1.4,0.8 0,0.5 0.5,0.7 1.7,0.8 2.2,0.3 3.1,1 3.1,2.7 0,1.7 -1.2,2.9 -3.9,2.9 -1,0.1 -2.2,-0.1 -3.2,-0.6 z"
   id="path3929"
   style="fill:#000000;fill-opacity:1"
   inkscape:connector-curvature="0" />
	<path
   class="st0"
   d="m 113,18.8 h 1.1 v -2.4 h 2.6 v 2.4 h 1.9 v 1.6 h -1.9 v 4.5 c 0,0.8 0.3,1.1 1.2,1.1 h 0.7 v 1.5 c -0.5,0.2 -1.1,0.2 -1.6,0.2 -1.8,0 -2.9,-0.7 -2.9,-2.5 V 20.4 H 113 Z"
   id="path3931"
   style="fill:#000000;fill-opacity:1"
   inkscape:connector-curvature="0" />
	<path
   class="st0"
   d="m 122,23.7 c 0.1,1.8 1,2.3 2.4,2.3 0.9,0 1.7,-0.2 2.4,-0.7 h 0.8 v 1.6 c -1.1,0.6 -2.4,0.9 -3.6,0.9 -3,0 -4.7,-1.7 -4.7,-4.5 -0.2,-2.4 1.7,-4.4 4,-4.6 0.2,0 0.3,0 0.5,0 2.7,0 4.2,1.4 4.2,4.3 0,0.3 0,0.7 0,0.8 z m 0,-1.4 h 3.5 c -0.1,-1.6 -0.6,-2.1 -1.6,-2.1 -1,0 -1.6,0.4 -1.9,2.1 z"
   id="path3933"
   style="fill:#000000;fill-opacity:1"
   inkscape:connector-curvature="0" />
	<path
   class="st0"
   d="m 132.1,21.2 v 6.4 h -2.6 v -8.8 h 1.8 c 0.4,0 0.7,0.2 0.8,1.1 0.7,-0.7 1.6,-1.1 2.6,-1.1 0.2,0 0.4,0 0.6,0.1 v 1.9 h -0.4 c -1.1,-0.1 -2,0 -2.8,0.4 z"
   id="path3935"
   style="fill:#000000;fill-opacity:1"
   inkscape:connector-curvature="0" />
	<path
   class="st0"
   d="m 136.4,16.8 c 0,-0.7 0.7,-1.3 1.4,-1.3 0.7,0 1.4,0.6 1.4,1.3 0,0 0,0 0,0 0,0.7 -0.6,1.3 -1.4,1.3 0,0 0,0 0,0 -0.8,0 -1.4,-0.6 -1.4,-1.3 0,0 0,0 0,0 z m 0.1,10.8 v -8.8 h 1.6 c 0.9,0 1,0.3 1,1.6 v 7.2 z"
   id="path3937"
   style="fill:#000000;fill-opacity:1"
   inkscape:connector-curvature="0" />
	<path
   class="st0"
   d="m 143.1,23.7 c 0.1,1.8 1,2.3 2.4,2.3 0.9,0 1.7,-0.2 2.4,-0.7 h 0.8 v 1.6 c -1.1,0.6 -2.4,0.9 -3.6,0.9 -3,0 -4.7,-1.7 -4.7,-4.5 -0.2,-2.4 1.7,-4.4 4,-4.6 0.2,0 0.3,0 0.5,0 2.7,0 4.2,1.4 4.2,4.3 0,0.3 0,0.7 0,0.8 h -6 z m 0,-1.4 h 3.5 c -0.1,-1.6 -0.6,-2.1 -1.6,-2.1 -1,0 -1.6,0.4 -1.9,2.1 z"
   id="path3939"
   style="fill:#000000;fill-opacity:1"
   inkscape:connector-curvature="0" />
	<path
   class="st0"
   d="m 149.9,18.8 h 1.1 v -2.4 h 2.6 v 2.4 h 1.9 v 1.6 h -1.9 v 4.5 c 0,0.8 0.4,1.1 1.2,1.1 h 0.7 v 1.5 c -0.5,0.2 -1.1,0.2 -1.6,0.2 -1.8,0 -2.9,-0.7 -2.9,-2.5 v -4.8 h -1.1 z"
   id="path3941"
   style="fill:#000000;fill-opacity:1"
   inkscape:connector-curvature="0" />
	<path
   class="st0"
   d="m 159.4,18.8 h 1.1 v -0.7 c 0,-1.7 1.1,-2.4 2.9,-2.4 0.5,0 1,0.1 1.5,0.2 v 1.5 h -0.7 c -0.7,0 -1.2,0.1 -1.2,0.8 v 0.6 h 1.8 v 1.6 H 163 v 7.2 h -2.6 v -7.2 h -1.1 z"
   id="path3943"
   style="fill:#000000;fill-opacity:1"
   inkscape:connector-curvature="0" />
	<path
   class="st0"
   d="m 165.4,23.2 c 0.1,-2.6 2.3,-4.6 4.9,-4.5 2.4,0.1 4.4,2.1 4.5,4.5 -0.1,2.6 -2.3,4.6 -4.9,4.5 -2.5,-0.1 -4.4,-2 -4.5,-4.5 z m 6.8,0 c 0,-1.9 -0.9,-2.9 -2.1,-2.9 -1.2,0 -2.1,0.9 -2.1,2.9 0,2 0.9,2.8 2.1,2.8 1.2,0 2.1,-0.9 2.1,-2.8 z"
   id="path3945"
   style="fill:#000000;fill-opacity:1"
   inkscape:connector-curvature="0" />
	<path
   class="st0"
   d="m 178.8,21.2 v 6.4 h -2.6 v -8.8 h 1.8 c 0.4,0 0.7,0.2 0.8,1.1 0.7,-0.7 1.6,-1.1 2.6,-1.1 0.2,0 0.4,0 0.6,0.1 v 1.9 h -0.4 c -1,-0.1 -1.9,0 -2.8,0.4 z"
   id="path3947"
   style="fill:#000000;fill-opacity:1"
   inkscape:connector-curvature="0" />
	<path
   class="st0"
   d="M 186.7,27.6 V 15.8 h 8.2 v 1.9 h -5.5 V 21 h 4.2 v 1.8 h -4.2 v 4.8 z"
   id="path3949"
   style="fill:#000000;fill-opacity:1"
   inkscape:connector-curvature="0" />
	<path
   class="st0"
   d="m 197.4,27.2 -0.7,0.8 h -1.5 v -0.5 l 1,-1.2 c -0.8,-0.8 -1.2,-2 -1.2,-3.1 -0.1,-2.5 1.9,-4.5 4.3,-4.6 0.1,0 0.3,0 0.4,0 0.8,0 1.7,0.2 2.4,0.6 l 0.6,-0.7 h 1.5 V 19 l -1,1.1 c 1.7,1.9 1.5,4.8 -0.3,6.5 -0.9,0.8 -2,1.2 -3.2,1.2 -0.7,-0.1 -1.5,-0.3 -2.3,-0.6 z m 0.4,-2.6 3.2,-3.9 c -0.4,-0.2 -0.8,-0.3 -1.2,-0.3 -1.3,0 -2.2,1 -2.2,2.9 0,0.4 0.1,0.8 0.2,1.3 z m 4.2,-1.4 c 0,-0.4 0,-0.9 -0.2,-1.3 l -3.2,3.8 c 0.4,0.2 0.8,0.3 1.2,0.3 1.3,0 2.2,-0.9 2.2,-2.8 z"
   id="path3951"
   style="fill:#000000;fill-opacity:1"
   inkscape:connector-curvature="0" />
	<path
   class="st0"
   d="m 211.9,26.6 c -0.7,0.7 -1.7,1.2 -2.7,1.1 -2.1,0 -3.7,-1.5 -3.7,-4.4 0,-3.5 2,-4.7 4,-4.7 0.9,-0.1 1.7,0.2 2.4,0.8 v -3.6 h 1.6 c 0.9,0 1,0.2 1,1.4 v 10.4 h -1.8 c -0.4,0 -0.7,-0.2 -0.8,-1 z m 0,-1.4 V 21 c -0.5,-0.3 -1,-0.5 -1.6,-0.4 -1.1,0 -2.1,0.5 -2.1,2.7 0,2 0.6,2.8 1.8,2.8 0.7,-0.1 1.4,-0.4 1.9,-0.9 z"
   id="path3953"
   style="fill:#000000;fill-opacity:1"
   inkscape:connector-curvature="0" />
	<path
   class="st0"
   d="m 218.5,23.7 c 0.1,1.8 1,2.3 2.4,2.3 0.9,0 1.7,-0.2 2.4,-0.7 h 0.8 v 1.6 c -1.1,0.6 -2.4,0.9 -3.6,0.9 -3,0 -4.7,-1.7 -4.7,-4.5 -0.2,-2.4 1.7,-4.4 4,-4.6 0.2,0 0.3,0 0.5,0 2.7,0 4.2,1.4 4.2,4.3 0,0.3 0,0.7 0,0.8 z m 0,-1.4 h 3.5 c -0.1,-1.6 -0.6,-2.1 -1.6,-2.1 -1,0 -1.6,0.4 -1.9,2.1 z"
   id="path3955"
   style="fill:#000000;fill-opacity:1"
   inkscape:connector-curvature="0" />
	<path
   class="st0"
   d="m 225.1,19.4 v -0.6 h 2.4 l 2.4,6.1 v 0 l 2.1,-6.1 h 2.2 v 0.6 l -3.2,8.2 h -2.5 z"
   id="path3957"
   style="fill:#000000;fill-opacity:1"
   inkscape:connector-curvature="0" />
	<path
   class="st0"
   d="m 240.7,26.7 c -0.7,0.7 -1.7,1.1 -2.7,1 -1.7,0 -3,-0.9 -3,-2.6 0,-1.7 1.6,-2.8 3.7,-2.8 0.6,0 1.2,0.1 1.9,0.2 v -0.8 c 0,-0.8 -0.5,-1.2 -1.7,-1.2 -0.9,0 -1.7,0.2 -2.4,0.7 h -0.7 v -1.8 c 1.1,-0.5 2.3,-0.8 3.5,-0.7 2.6,0 3.9,0.8 3.9,2.8 v 6.1 H 242 c -0.8,0 -1.1,-0.2 -1.3,-0.9 z m -0.2,-2.9 c -0.4,-0.1 -0.9,-0.1 -1.3,-0.1 -1,0 -1.7,0.4 -1.7,1.2 0,0.8 0.6,1.2 1.4,1.2 0.6,0 1.2,-0.3 1.6,-0.7 z"
   id="path3959"
   style="fill:#000000;fill-opacity:1"
   inkscape:connector-curvature="0" />
	<path
   class="st0"
   d="m 247.6,21.2 v 6.4 H 245 v -8.8 h 1.8 c 0.4,0 0.7,0.2 0.8,1.1 0.7,-0.7 1.6,-1.1 2.6,-1.1 0.2,0 0.4,0 0.6,0.1 v 1.9 h -0.4 c -1.1,-0.1 -2,0 -2.8,0.4 z"
   id="path3961"
   style="fill:#000000;fill-opacity:1"
   inkscape:connector-curvature="0" />
	<path
   class="st0"
   d="m 253.8,23.7 c 0.1,1.8 1,2.3 2.4,2.3 0.9,0 1.7,-0.2 2.5,-0.7 h 0.8 v 1.6 c -1.1,0.6 -2.4,0.9 -3.6,0.9 -3,0 -4.7,-1.7 -4.7,-4.5 -0.2,-2.4 1.7,-4.4 4,-4.6 0.2,0 0.3,0 0.5,0 2.7,0 4.2,1.4 4.2,4.3 0,0.3 0,0.7 0,0.8 z m 0,-1.4 h 3.5 c 0,-1.6 -0.6,-2.1 -1.6,-2.1 -1,0 -1.6,0.4 -1.9,2.1 z"
   id="path3963"
   style="fill:#000000;fill-opacity:1"
   inkscape:connector-curvature="0" />
	<path
   class="st0"
   d="m 263.9,21.2 v 6.4 h -2.6 v -8.8 h 1.7 c 0.4,0 0.7,0.2 0.8,1.1 0.7,-0.7 1.6,-1.1 2.6,-1.1 0.2,0 0.4,0 0.6,0.1 v 1.9 h -0.4 c -1,-0.1 -1.9,0.1 -2.7,0.4 z"
   id="path3965"
   style="fill:#000000;fill-opacity:1"
   inkscape:connector-curvature="0" />
	<path
   class="st0"
   d="m 267.7,27.7 c 0,-0.3 -0.3,-0.3 -0.6,-0.5 -0.4,-0.2 -0.6,-0.6 -0.5,-1 0.1,-0.7 0.7,-1.2 1.4,-1.2 0,0 0,0 0.1,0 0.8,0 1.5,0.6 1.5,1.4 0,0.1 0,0.1 0,0.2 0,1.7 -0.9,2.6 -3,2.8 v -1.1 c 0.7,0 1.1,-0.3 1.1,-0.6 z"
   id="path3967"
   style="fill:#000000;fill-opacity:1"
   inkscape:connector-curvature="0" />
	<path
   class="st0"
   d="M 71.3,47.6 V 35.8 H 74 v 9.9 h 5.1 v 1.8 z"
   id="path3969"
   style="fill:#000000;fill-opacity:1"
   inkscape:connector-curvature="0" />
	<path
   class="st0"
   d="m 85.8,46.7 c -0.7,0.7 -1.7,1.1 -2.7,1 -1.7,0 -3,-0.9 -3,-2.7 0,-1.8 1.6,-2.8 3.7,-2.8 0.6,0 1.2,0.1 1.8,0.2 v -0.8 c 0,-0.8 -0.5,-1.2 -1.7,-1.2 -0.9,0 -1.7,0.2 -2.4,0.7 h -0.7 v -1.7 c 1.1,-0.5 2.3,-0.8 3.5,-0.7 2.6,0 3.9,0.8 3.9,2.8 v 6.1 h -1.1 c -0.8,0 -1.1,-0.2 -1.3,-0.9 z m -0.1,-2.9 c -0.4,-0.1 -0.9,-0.1 -1.3,-0.1 -1,0 -1.7,0.3 -1.7,1.2 0,0.9 0.6,1.2 1.4,1.2 0.6,0 1.2,-0.3 1.6,-0.7 z"
   id="path3971"
   style="fill:#000000;fill-opacity:1"
   inkscape:connector-curvature="0" />
	<path
   class="st0"
   d="m 92.7,39.7 c 1,-0.7 2.1,-1.1 3.3,-1.1 1.2,-0.2 2.3,0.6 2.5,1.8 0,0.2 0,0.4 0,0.7 v 6.5 H 96 v -5.9 c 0,-0.9 -0.3,-1.1 -1.2,-1.1 -0.7,0 -1.4,0.2 -2.1,0.4 v 6.6 h -2.6 v -8.8 h 1.8 c 0.4,-0.1 0.7,0.1 0.8,0.9 z"
   id="path3973"
   style="fill:#000000;fill-opacity:1"
   inkscape:connector-curvature="0" />
	<path
   class="st0"
   d="m 106.4,46.6 c -0.7,0.7 -1.7,1.2 -2.7,1.1 -2.1,0 -3.7,-1.5 -3.7,-4.4 0,-3.5 2,-4.7 4,-4.7 0.9,-0.1 1.7,0.2 2.4,0.8 v -3.6 h 1.6 c 0.9,0 1,0.2 1,1.4 v 10.4 h -1.8 c -0.5,0 -0.7,-0.2 -0.8,-1 z m -0.1,-1.4 v -4.3 c -0.5,-0.3 -1,-0.5 -1.6,-0.4 -1.1,0 -2.1,0.5 -2.1,2.7 0,2 0.6,2.8 1.8,2.8 0.7,0 1.4,-0.3 1.9,-0.8 z"
   id="path3975"
   style="fill:#000000;fill-opacity:1"
   inkscape:connector-curvature="0" />
	<path
   class="st0"
   d="m 113.4,39.6 c 0.8,-0.7 1.8,-1 2.8,-1 1.8,0 3.6,1.1 3.6,4.4 0,3.3 -2,4.7 -4,4.7 -1,0 -2,-0.3 -2.8,-0.9 -0.2,0.4 -0.6,0.7 -1,0.8 h -1.2 V 35.8 h 1.6 c 0.8,0 1,0.2 1,1.4 z m 0,1.3 v 4.5 c 0.5,0.4 1.1,0.6 1.7,0.5 1.1,0 2.1,-0.4 2.1,-2.7 0,-2.3 -0.9,-2.8 -2,-2.8 -0.6,0.1 -1.2,0.3 -1.8,0.5 z"
   id="path3977"
   style="fill:#000000;fill-opacity:1"
   inkscape:connector-curvature="0" />
	<path
   class="st0"
   d="m 123.8,41.2 v 6.4 h -2.6 v -8.8 h 1.8 c 0.4,0 0.7,0.2 0.8,1.1 0.7,-0.7 1.6,-1.1 2.6,-1.1 0.2,0 0.4,0 0.6,0.1 v 1.9 h -0.4 c -1,-0.2 -1.9,0 -2.8,0.4 z"
   id="path3979"
   style="fill:#000000;fill-opacity:1"
   inkscape:connector-curvature="0" />
	<path
   class="st0"
   d="m 134.1,45.4 v -6.7 h 2.6 v 8.8 h -1.8 c -0.4,0 -0.7,-0.1 -0.8,-0.8 -0.9,0.6 -2,0.9 -3.2,0.9 -1.6,0 -2.7,-0.6 -2.7,-2.4 v -6.5 h 2.6 v 5.9 c 0,1 0.5,1.2 1.3,1.2 0.7,0 1.4,-0.1 2,-0.4 z"
   id="path3981"
   style="fill:#000000;fill-opacity:1"
   inkscape:connector-curvature="0" />
	<path
   class="st0"
   d="m 147.2,47.1 c 0,2.2 -1.7,3.3 -4.8,3.3 -1.3,0.1 -2.6,-0.2 -3.7,-0.7 v -1.8 h 0.8 c 0.8,0.5 1.7,0.8 2.6,0.7 1.7,0 2.5,-0.5 2.5,-1.7 v -0.5 c -0.7,0.6 -1.6,0.9 -2.6,0.9 -2,0 -3.8,-1.2 -3.8,-4.1 0,-3.3 2,-4.5 4.1,-4.5 0.9,0 1.8,0.3 2.6,0.9 0.2,-0.5 0.6,-0.7 1.1,-0.7 h 1.3 z m -2.6,-2.2 V 41 c -0.5,-0.4 -1.1,-0.5 -1.7,-0.5 -1.1,0 -2.1,0.5 -2.1,2.5 0,2 0.6,2.6 1.9,2.6 0.8,-0.1 1.4,-0.3 1.9,-0.7 z"
   id="path3983"
   style="fill:#000000;fill-opacity:1"
   inkscape:connector-curvature="0" />
	<path
   class="st0"
   d="m 152,43.2 c 0.1,-2.6 2.3,-4.6 4.9,-4.5 2.4,0.1 4.4,2.1 4.5,4.5 -0.1,2.6 -2.3,4.6 -4.9,4.5 -2.4,-0.1 -4.4,-2.1 -4.5,-4.5 z m 6.8,0 c 0,-1.9 -0.9,-2.9 -2.1,-2.9 -1.2,0 -2.1,0.9 -2.1,2.9 0,2 0.9,2.7 2.1,2.7 1.2,0 2.1,-0.8 2.1,-2.7 z"
   id="path3985"
   style="fill:#000000;fill-opacity:1"
   inkscape:connector-curvature="0" />
	<path
   class="st0"
   d="m 171.4,47.1 c 0,2.2 -1.7,3.3 -4.8,3.3 -1.3,0.1 -2.6,-0.2 -3.7,-0.7 v -1.8 h 0.8 c 0.8,0.5 1.7,0.8 2.6,0.7 1.7,0 2.5,-0.5 2.5,-1.7 v -0.5 c -0.7,0.6 -1.6,0.9 -2.6,0.9 -2,0 -3.8,-1.2 -3.8,-4.1 0,-3.3 2,-4.5 4.1,-4.5 0.9,0 1.8,0.3 2.6,0.9 0.2,-0.5 0.6,-0.7 1.1,-0.7 h 1.3 z m -2.6,-2.2 V 41 c -0.5,-0.4 -1.1,-0.5 -1.7,-0.5 -1.1,0 -2.1,0.5 -2.1,2.5 0,2 0.6,2.6 1.9,2.6 0.7,-0.1 1.3,-0.3 1.9,-0.7 z"
   id="path3987"
   style="fill:#000000;fill-opacity:1"
   inkscape:connector-curvature="0" />
	<path
   class="st0"
   d="M 176.8,47.6 V 35.8 h 8.2 v 1.9 h -5.5 v 3.2 h 4.2 v 1.8 h -4.2 v 4.8 z"
   id="path3989"
   style="fill:#000000;fill-opacity:1"
   inkscape:connector-curvature="0" />
	<path
   class="st0"
   d="m 186.2,36.8 c 0,-0.7 0.7,-1.3 1.4,-1.3 0.7,0 1.4,0.6 1.4,1.3 0,0 0,0 0,0 0,0.7 -0.7,1.3 -1.4,1.3 -0.7,-0.1 -1.4,-0.6 -1.4,-1.3 z m 0.1,10.7 v -8.8 h 1.6 c 0.9,0 1,0.3 1,1.6 v 7.2 z"
   id="path3991"
   style="fill:#000000;fill-opacity:1"
   inkscape:connector-curvature="0" />
	<path
   class="st0"
   d="m 190.4,46.9 v -1.8 h 0.8 c 0.6,0.5 1.5,0.8 2.3,0.7 1,0 1.6,-0.3 1.6,-0.8 0,-0.5 -0.3,-0.8 -1.6,-0.9 -2,-0.2 -3.1,-1 -3.1,-2.7 0,-1.7 1.4,-2.8 3.7,-2.8 1,0 2,0.2 2.9,0.6 V 41 h -0.8 c -0.6,-0.4 -1.4,-0.6 -2.1,-0.6 -1,0 -1.4,0.3 -1.4,0.8 0,0.5 0.5,0.7 1.7,0.8 2.2,0.3 3.1,1 3.1,2.7 0,1.7 -1.2,2.9 -3.9,2.9 -1.1,0.1 -2.2,-0.2 -3.2,-0.7 z"
   id="path3993"
   style="fill:#000000;fill-opacity:1"
   inkscape:connector-curvature="0" />
	<path
   class="st0"
   d="m 201.4,42.3 3.3,-3.5 h 2.1 v 0.6 l -2.7,2.8 3.1,4.7 v 0.7 h -2.4 l -2.4,-3.7 -1,0.9 v 2.8 h -2.6 V 35.8 h 1.6 c 0.9,0 1,0.2 1,1.4 z"
   id="path3995"
   style="fill:#000000;fill-opacity:1"
   inkscape:connector-curvature="0" />
	<path
   class="st0"
   d="m 210.2,43.7 c 0.1,1.8 1,2.3 2.4,2.3 0.9,0 1.7,-0.2 2.4,-0.7 h 0.8 v 1.6 c -1.1,0.6 -2.4,0.9 -3.6,0.9 -3,0 -4.7,-1.7 -4.7,-4.5 -0.2,-2.4 1.7,-4.4 4,-4.6 0.2,0 0.3,0 0.5,0 2.7,0 4.2,1.4 4.2,4.3 0,0.3 0,0.7 0,0.8 h -6 z m 0,-1.5 h 3.5 c -0.1,-1.6 -0.6,-2.1 -1.6,-2.1 -1,0 -1.7,0.5 -1.9,2.1 z"
   id="path3997"
   style="fill:#000000;fill-opacity:1"
   inkscape:connector-curvature="0" />
	<path
   class="st0"
   d="m 220.2,41.2 v 6.4 h -2.6 v -8.8 h 1.8 c 0.4,0 0.7,0.2 0.8,1.1 0.7,-0.7 1.6,-1.1 2.6,-1.1 0.2,0 0.4,0 0.6,0.1 v 1.9 H 223 c -1,-0.2 -2,0 -2.8,0.4 z"
   id="path3999"
   style="fill:#000000;fill-opacity:1"
   inkscape:connector-curvature="0" />
	<path
   class="st0"
   d="m 224.5,36.8 c 0,-0.7 0.7,-1.3 1.4,-1.3 0.7,0 1.4,0.6 1.4,1.3 0,0 0,0 0,0 0,0.7 -0.7,1.3 -1.4,1.3 -0.7,-0.1 -1.3,-0.6 -1.4,-1.3 z m 0.1,10.7 v -8.8 h 1.6 c 0.9,0 1,0.3 1,1.6 v 7.2 z"
   id="path4001"
   style="fill:#000000;fill-opacity:1"
   inkscape:connector-curvature="0" />
	<polygon
   class="st0"
   points="72.8,62.3 77.5,62.3 77.5,61.3 72.8,61.3 72.8,56.7 79.2,56.7 79.2,55.7 71.5,55.7 71.5,67.7 72.8,67.7 "
   id="polygon4003"
   style="fill:#000000;fill-opacity:1" />
	<path
   class="st0"
   d="m 80.8,58.7 h -0.4 v 9.1 h 1.2 v -8 c -0.1,-0.9 -0.1,-1.1 -0.8,-1.1 z"
   id="path4005"
   style="fill:#000000;fill-opacity:1"
   inkscape:connector-curvature="0" />
	<path
   class="st0"
   d="m 81,56.2 c -0.4,0 -0.7,0.3 -0.8,0.7 0,0.4 0.3,0.8 0.8,0.8 0.4,0 0.8,-0.3 0.8,-0.8 -0.1,-0.4 -0.4,-0.7 -0.8,-0.7 z"
   id="path4007"
   style="fill:#000000;fill-opacity:1"
   inkscape:connector-curvature="0" />
	<path
   class="st0"
   d="M 86.7,62.5 C 85,62.2 84.4,61.9 84.4,61 c 0,-0.9 0.7,-1.4 2.1,-1.4 0.8,-0.1 1.6,0.2 2.2,0.7 v 0 h 0.6 v -0.9 h -0.1 c -0.8,-0.5 -1.8,-0.7 -2.8,-0.7 -2,0 -3.3,1 -3.3,2.5 0,1.8 1.6,2.3 3,2.5 2,0.3 2.3,0.8 2.3,1.6 0,1.1 -0.8,1.7 -2.3,1.7 -0.9,0 -1.7,-0.3 -2.4,-0.8 v 0 h -0.6 v 0.9 h 0.1 c 0.9,0.6 2,0.9 3.1,0.8 2.3,0 3.5,-1 3.5,-2.8 0,-1.8 -1.3,-2.3 -3.1,-2.6 z"
   id="path4009"
   style="fill:#000000;fill-opacity:1"
   inkscape:connector-curvature="0" />
	<path
   class="st0"
   d="m 98,59.3 v 0 -0.6 h -0.9 l -4.5,4.7 v -6.8 c 0,-0.7 -0.1,-1 -0.7,-1 h -0.5 v 12.1 h 1.2 v -2.9 l 1.5,-1.5 3.2,4.4 h 1 v -0.5 l -3.4,-4.7 z"
   id="path4011"
   style="fill:#000000;fill-opacity:1"
   inkscape:connector-curvature="0" />
	<path
   class="st0"
   d="m 102.8,58.6 c -2.5,0 -4.2,1.9 -4.2,4.7 0,2.8 1.7,4.6 4.5,4.6 1.2,0.1 2.4,-0.3 3.4,-1 h 0.1 V 66 H 106 v 0 c -0.8,0.6 -1.8,0.9 -2.8,0.9 -2.2,0 -3.3,-1.2 -3.3,-3.4 h 6.9 v -0.2 c 0,-0.1 0,-0.2 0,-0.3 0,-2.9 -1.4,-4.4 -4,-4.4 z m 0,1 c 1.7,0 2.6,1 2.7,2.9 h -5.7 c 0.3,-1.9 1.4,-3 3,-2.9 z"
   id="path4013"
   style="fill:#000000;fill-opacity:1"
   inkscape:connector-curvature="0" />
	<path
   class="st0"
   d="m 112.3,58.6 c -1.1,0 -2.1,0.5 -2.8,1.3 v -0.1 c 0,-0.8 -0.1,-1.1 -0.6,-1.1 h -0.6 v 9.1 h 1.2 v -6.6 c 0.7,-0.9 1.7,-1.5 2.9,-1.5 h 0.4 0.2 v -1 h -0.1 c -0.2,-0.1 -0.4,-0.1 -0.6,-0.1 z"
   id="path4015"
   style="fill:#000000;fill-opacity:1"
   inkscape:connector-curvature="0" />
	<path
   class="st0"
   d="m 115,56.2 c -0.4,0 -0.7,0.3 -0.8,0.7 0,0.4 0.3,0.8 0.8,0.8 0.4,0 0.8,-0.3 0.8,-0.8 -0.1,-0.4 -0.4,-0.7 -0.8,-0.7 z"
   id="path4017"
   style="fill:#000000;fill-opacity:1"
   inkscape:connector-curvature="0" />
	<path
   class="st0"
   d="m 114.8,58.7 h -0.4 v 9.1 h 1.2 v -8 c 0,-0.9 -0.1,-1.1 -0.8,-1.1 z"
   id="path4019"
   style="fill:#000000;fill-opacity:1"
   inkscape:connector-curvature="0" />
	<path
   class="st0"
   d="m 120.7,62.5 c -1.7,-0.3 -2.3,-0.6 -2.3,-1.5 0,-0.9 0.7,-1.4 2.1,-1.4 0.8,-0.1 1.6,0.2 2.2,0.7 v 0 h 0.6 v -0.9 h -0.1 c -0.8,-0.5 -1.8,-0.7 -2.8,-0.7 -2,0 -3.3,1 -3.3,2.5 0,1.8 1.6,2.3 3,2.5 2,0.3 2.3,0.8 2.3,1.6 0,1.1 -0.8,1.7 -2.3,1.7 -0.9,0 -1.8,-0.2 -2.5,-0.8 v 0 H 117 V 67 h 0.1 c 0.9,0.6 2,0.9 3.1,0.8 2.3,0 3.5,-1 3.5,-2.8 0,-1.8 -1.1,-2.2 -3,-2.5 z"
   id="path4021"
   style="fill:#000000;fill-opacity:1"
   inkscape:connector-curvature="0" />
	<path
   class="st0"
   d="m 126.9,65.6 v -6 h 2.4 v -1 h -2.4 v -2.4 h -1.2 v 2.4 h -1.2 v 1 h 1.2 v 6 c 0,1.4 0.8,2.1 2.3,2.1 0.5,0 0.9,0 1.4,-0.1 h 0.1 v -0.9 h -1.2 c -1,0.1 -1.4,-0.2 -1.4,-1.1 z"
   id="path4023"
   style="fill:#000000;fill-opacity:1"
   inkscape:connector-curvature="0" />
	<polygon
   class="st0"
   points="130,58.7 130,59.1 133.7,67 132.3,70 132.3,70.5 133.4,70.5 138.4,59.1 138.4,58.7 137.3,58.7 134.3,65.6 131.1,58.7 "
   id="polygon4025"
   style="fill:#000000;fill-opacity:1" />
	<path
   class="st0"
   d="m 143.8,58.6 c -1.1,0 -2.1,0.5 -2.8,1.3 v -0.1 c 0,-0.8 -0.1,-1.1 -0.6,-1.1 h -0.6 v 9.1 h 1.2 v -6.6 c 0.7,-0.9 1.7,-1.5 2.9,-1.5 h 0.4 0.2 v -1 h -0.1 c -0.2,-0.1 -0.4,-0.1 -0.6,-0.1 z"
   id="path4027"
   style="fill:#000000;fill-opacity:1"
   inkscape:connector-curvature="0" />
	<path
   class="st0"
   d="m 148.8,58.6 c -2.5,0 -4.2,1.9 -4.2,4.7 0,2.8 1.7,4.6 4.5,4.6 1.2,0.1 2.4,-0.3 3.4,-1 h 0.1 V 66 H 152 v 0 c -0.8,0.6 -1.8,0.9 -2.8,0.9 -2.2,0 -3.3,-1.2 -3.3,-3.4 h 6.9 v -0.2 c 0,-0.1 0,-0.2 0,-0.3 0,-2.9 -1.4,-4.4 -4,-4.4 z m 0,1 c 1.7,0 2.6,1 2.7,2.9 h -5.7 c 0.3,-1.9 1.4,-3 3,-2.9 z"
   id="path4029"
   style="fill:#000000;fill-opacity:1"
   inkscape:connector-curvature="0" />
	<path
   class="st0"
   d="m 154.8,55.7 h -0.5 v 12.1 h 1.2 V 56.6 c 0,-0.7 -0.1,-0.9 -0.7,-0.9 z"
   id="path4031"
   style="fill:#000000;fill-opacity:1"
   inkscape:connector-curvature="0" />
	<path
   class="st0"
   d="m 160.6,62.5 c -1.7,-0.3 -2.3,-0.6 -2.3,-1.5 0,-0.9 0.7,-1.4 2.1,-1.4 0.8,-0.1 1.6,0.2 2.2,0.7 v 0 h 0.6 v -0.9 h -0.1 c -0.8,-0.5 -1.8,-0.7 -2.8,-0.7 -2,0 -3.3,1 -3.3,2.5 0,1.8 1.6,2.3 3,2.5 2,0.3 2.3,0.8 2.3,1.6 0,1.1 -0.8,1.7 -2.3,1.7 -0.9,0 -1.8,-0.2 -2.5,-0.8 v 0 H 157 V 67 h 0.1 c 0.9,0.6 2,0.9 3.1,0.8 2.3,0 3.5,-1 3.5,-2.8 0,-1.8 -1.3,-2.2 -3.1,-2.5 z"
   id="path4033"
   style="fill:#000000;fill-opacity:1"
   inkscape:connector-curvature="0" />
	<path
   class="st0"
   d="m 168.8,58.6 c -2.5,0 -4.2,1.9 -4.2,4.7 0,2.8 1.7,4.6 4.5,4.6 1.2,0.1 2.4,-0.3 3.4,-1 h 0.1 V 66 H 172 v 0 c -0.8,0.6 -1.8,0.9 -2.8,0.9 -2.2,0 -3.3,-1.2 -3.3,-3.4 h 6.9 v -0.2 c 0,-0.1 0,-0.2 0,-0.3 -0.1,-2.9 -1.5,-4.4 -4,-4.4 z m 0,1 c 1.7,0 2.6,1 2.7,2.9 h -5.7 c 0.3,-1.9 1.3,-3 3,-2.9 z"
   id="path4035"
   style="fill:#000000;fill-opacity:1"
   inkscape:connector-curvature="0" />
	<path
   class="st0"
   d="m 179.3,58.6 c -1.4,0 -2.8,0.5 -3.9,1.3 v -0.2 c 0,-0.7 -0.1,-1 -0.6,-1 h -0.6 v 9.1 h 1.2 V 61 c 1,-0.8 2.2,-1.3 3.5,-1.4 1.2,0 1.7,0.5 1.7,1.6 v 6.6 h 1.2 v -6.7 c 0.2,-1.2 -0.7,-2.3 -1.9,-2.5 -0.2,-0.1 -0.4,-0.1 -0.6,0 z"
   id="path4037"
   style="fill:#000000;fill-opacity:1"
   inkscape:connector-curvature="0" />
</g>
</svg>